<svg xmlns="http://www.w3.org/2000/svg" width="74" height="50" viewBox="0 0 74 50" fill="none">
  <path d="M17.8612 6.82726L17.2061 8.23372C17.1724 8.30638 17.0999 8.35308 17.0196 8.35308L15.5592 8.36C15.4556 8.36087 15.3874 8.25275 15.4306 8.15933L16.0563 6.81516H17.7939L17.8612 6.82726Z" fill="black"/>
  <path d="M16.9247 8.84007L15.9795 10.8728C15.9502 10.9359 15.8889 10.9783 15.819 10.9818C15.5488 10.9982 14.8453 11.0328 14.28 10.9921C14.2023 10.9869 14.154 10.9039 14.1868 10.833L15.1207 8.82623C15.1595 8.74232 15.245 8.68956 15.3373 8.69129C15.863 8.70254 16.3679 8.71205 16.8522 8.72157C16.9117 8.72416 16.9497 8.78644 16.9247 8.84007Z" fill="black"/>
  <path d="M15.7404 11.3848L14.5346 13.9772C14.4966 14.0585 14.4155 14.1095 14.3257 14.1086L11.5101 14.0697C11.4488 14.0689 11.3927 14.0325 11.3668 13.9772L10.3103 11.7049C10.2422 11.5587 10.3466 11.39 10.508 11.3866L11.7967 11.3563C11.8916 11.3537 11.9788 11.4082 12.0185 11.4938L12.9507 13.4962L13.9166 11.4203C13.9503 11.3485 14.0219 11.3018 14.1004 11.2992L15.661 11.262C15.724 11.2594 15.7672 11.326 15.7404 11.3848Z" fill="black"/>
  <path d="M6.34416 14.4053L5.86339 15.4381H4.04473L3.53288 14.3379C3.5113 14.2912 3.54324 14.2375 3.59503 14.2358C3.99984 14.2237 5.4439 14.1908 6.28288 14.2946C6.33553 14.3015 6.3666 14.3578 6.34416 14.4053Z" fill="black"/>
  <path d="M7.57847 11.7524L6.59707 13.8604C6.55822 13.9443 6.47277 13.9979 6.38042 13.9971L3.52511 13.9573C3.42067 13.9555 3.32659 13.895 3.28257 13.7998L2.29857 11.685C2.27613 11.6374 2.31066 11.582 2.36331 11.5803L3.85656 11.544C3.9705 11.5414 4.0758 11.6063 4.12414 11.7101L4.95363 13.4936L5.82109 11.6296C5.85907 11.5474 5.94107 11.4938 6.03084 11.4921L7.38858 11.4592C7.54049 11.4575 7.64321 11.6149 7.57847 11.7524Z" fill="black"/>
  <path d="M3.63732 11.2404C3.18158 11.2758 2.71547 11.3139 2.23815 11.3563C2.1855 11.3606 2.13457 11.3321 2.11213 11.2836L0.94774 8.78211C0.920119 8.7233 0.958961 8.65496 1.0237 8.64891C1.30767 8.62209 1.99474 8.56327 2.51954 8.57019C2.60758 8.57106 2.68699 8.62296 2.72411 8.70254L3.78578 10.9852C3.83843 11.0985 3.76248 11.2309 3.63732 11.2404Z" fill="black"/>
  <path d="M0.735405 8.32627L0.0379787 6.82727H1.85146L2.46257 8.14203C2.50659 8.23631 2.44099 8.3453 2.33741 8.35136L0.900267 8.42661C0.830352 8.4292 0.765615 8.39028 0.735405 8.32627Z" fill="black"/>
  <path d="M11.6672 10.9255C11.1908 10.9229 10.6996 10.9247 10.1938 10.9307C10.0471 10.9324 9.91157 10.8485 9.84942 10.7145L8.9552 8.79249L8.95174 8.78384L8.94743 8.79249L8.95174 8.80114L8.0135 10.8174C7.97293 10.9048 7.88834 10.9627 7.79167 10.9696C7.46281 10.9913 6.6877 11.0414 6.1793 11.0708C6.13355 11.0734 6.10248 11.0267 6.12147 10.9852L7.11409 8.85131C7.15294 8.76827 7.23407 8.71378 7.3247 8.71032C7.86245 8.6861 9.72513 8.60652 10.603 8.60825C10.647 8.60825 10.6867 8.6342 10.7057 8.67399L11.7164 10.8468C11.7337 10.884 11.7078 10.9264 11.6672 10.9255Z" fill="black"/>
  <path d="M10.5218 8.38509L7.45763 8.39893C7.39548 8.39893 7.35491 8.33492 7.38081 8.2787L8.04889 6.84457L8.05665 6.82727H9.8546L9.86237 6.84457L9.85805 6.85321L10.5503 8.34011C10.5598 8.36087 10.5451 8.38509 10.5218 8.38509Z" fill="black"/>
  <path d="M14.1229 14.862L13.8544 15.4381H12.047L11.7 14.6925C11.6828 14.6562 11.7112 14.6147 11.7509 14.6164C12.5425 14.6501 13.3003 14.6752 14.0124 14.6864C14.103 14.6873 14.16 14.7807 14.1229 14.862Z" fill="black"/>
  <path d="M26.0387 11.0103L25.1833 11.0311C24.9097 11.038 24.6637 10.8529 24.6067 10.5847C24.4548 9.87112 24.0224 9.26131 23.4302 8.8764C23.4087 8.86256 23.419 8.82969 23.4449 8.82969C24.1596 8.83574 24.7828 8.83747 25.3292 8.83228C25.4733 8.83142 25.6071 8.9084 25.6788 9.03382C25.9791 9.56578 26.169 10.1687 26.2182 10.8114C26.226 10.9169 26.1449 11.0077 26.0387 11.0103Z" fill="black"/>
  <path d="M24.5523 14.5117C24.5696 14.5117 24.5765 14.5342 24.5636 14.5446C23.8394 15.1042 22.9313 15.4381 21.9465 15.4381C21.0307 15.4381 20.1822 15.1501 19.4865 14.6605C19.458 14.6406 19.4675 14.5948 19.502 14.5887C20.0286 14.4962 23.0919 14.5169 23.564 14.5143C23.9015 14.5126 24.2304 14.5117 24.5523 14.5117Z" fill="black"/>
  <path d="M26.2234 11.4116C26.1544 12.5266 25.6624 13.5265 24.9045 14.2505C24.9011 14.254 24.8967 14.2557 24.8924 14.2548L19.2716 14.1761C19.0264 14.1726 18.7934 14.0619 18.6423 13.8699C18.1236 13.2125 17.8413 12.3882 17.6851 11.5025C18.2626 11.4904 18.556 11.4411 18.8814 11.4272C19.0895 11.4186 19.2716 11.563 19.3182 11.7663C19.5944 12.9721 20.6716 13.8708 21.9586 13.8708C23.2231 13.8708 24.2865 13.0023 24.5843 11.8268C24.6456 11.5864 24.8639 11.4194 25.1117 11.4177C25.475 11.416 25.8462 11.4134 26.2234 11.4116Z" fill="black"/>
  <path d="M20.4489 8.79076C20.4981 8.79163 20.5162 8.85564 20.4748 8.88245C19.5072 9.41095 19.2681 10.4714 19.2483 10.8814C19.2483 10.9679 19.162 11.1409 18.9893 11.1409C18.7494 11.1461 18.392 11.1919 18.0632 11.198C17.8362 11.2023 17.6558 11.0086 17.6748 10.7819C17.711 10.3503 17.8293 9.65747 18.209 9.04074C18.3851 8.80547 18.4714 8.71897 18.6941 8.75876C19.3078 8.87034 19.9017 8.78125 20.4489 8.79076Z" fill="black"/>
  <path d="M24.9589 8.31589L18.7891 8.3453C18.7537 8.3453 18.7338 8.30292 18.7571 8.2761C18.9073 8.10743 19.0722 7.95087 19.2483 7.80815C19.9845 7.20958 20.9237 6.85062 21.9465 6.85062C23.1549 6.85062 24.2468 7.35231 25.0254 8.15933C25.0815 8.21728 25.04 8.31589 24.9589 8.31589Z" fill="black"/>
  <path d="M34.2231 14.5256C34.2455 14.5247 34.2559 14.5532 34.2378 14.5662C33.5188 15.1129 32.6219 15.4372 31.65 15.4372C30.736 15.4372 29.8883 15.1501 29.1926 14.6605C29.1469 14.6285 29.1702 14.5558 29.2263 14.5567C31.1468 14.5861 32.7557 14.6025 34.2231 14.5256Z" fill="black"/>
  <path d="M35.8156 11.4004C35.876 11.4004 35.9244 11.4514 35.9192 11.512C35.8311 12.5525 35.3728 13.4876 34.6771 14.183C34.6417 14.2176 29.8072 14.3361 28.711 14.2159C28.6704 14.2116 28.6333 14.1934 28.6048 14.1649C27.9255 13.4772 27.475 12.5595 27.3826 11.5397C27.3757 11.467 27.4344 11.4047 27.5069 11.4047C27.9005 11.403 28.2984 11.4013 28.6981 11.4013C28.8474 11.4013 28.9708 11.5103 28.9984 11.6573C29.2323 12.9176 30.3355 13.8716 31.6613 13.8716C32.9896 13.8716 34.0953 12.9132 34.3258 11.6478C34.3517 11.5059 34.4708 11.4013 34.615 11.4013H35.8156V11.4004Z" fill="black"/>
  <path d="M35.8208 10.775L34.5908 10.8044C34.4544 10.8079 34.3379 10.711 34.3094 10.5778C34.1834 9.99481 33.8701 9.48102 33.4359 9.10388C33.3573 9.03555 33.4152 8.9058 33.5188 8.91791C33.8001 8.95078 33.9935 8.97414 34.0945 8.97846C34.3888 8.9923 34.7211 8.99749 35.1156 8.99317C35.2666 8.99144 35.4082 9.07534 35.4764 9.21028C35.7025 9.6592 35.8536 10.1522 35.9097 10.6747C35.9149 10.7274 35.8734 10.7733 35.8208 10.775Z" fill="black"/>
  <path d="M30.4459 8.72762C29.6726 9.11772 29.1106 9.86766 28.9812 10.7577C28.9656 10.8632 28.8776 10.942 28.7714 10.9446L27.5509 10.974C27.4508 10.9766 27.3723 10.8909 27.38 10.7906C27.437 10.0804 27.6675 9.4196 28.0274 8.84958C28.099 8.73713 28.219 8.66534 28.3519 8.65756C28.8198 8.62815 29.342 8.61171 29.8659 8.63161C30.061 8.63939 30.2491 8.64718 30.4313 8.65583C30.4692 8.65842 30.4805 8.71032 30.4459 8.72762Z" fill="black"/>
  <path d="M34.7185 8.27005L28.648 8.29859C28.5686 8.29859 28.5272 8.20258 28.5833 8.14549C28.6998 8.02612 28.8224 7.91368 28.9518 7.80815C29.6881 7.20958 30.6272 6.85062 31.65 6.85062C32.8723 6.85062 33.9745 7.36355 34.7548 8.18614C34.785 8.21728 34.7617 8.26918 34.7185 8.27005Z" fill="black"/>
  <path d="M45.6607 8.81066V10.1695C45.6607 10.3737 45.4976 10.5415 45.2939 10.5458L44.271 10.5709C44.126 10.5743 43.9931 10.4827 43.9499 10.3434C43.7393 9.66785 43.2724 9.10561 42.6621 8.77173C42.5758 8.72416 42.6034 8.59268 42.7018 8.58317C43.6211 8.49581 44.7924 8.48975 45.3457 8.49148C45.52 8.49321 45.6607 8.63593 45.6607 8.81066Z" fill="black"/>
  <path d="M45.6607 14.7124V15.2547C45.6607 15.3559 45.5787 15.4381 45.4777 15.4381H44.221C44.1329 15.4381 44.0622 15.3663 44.0622 15.279V14.7046C44.0622 14.6043 44.1442 14.523 44.2443 14.5247L45.4933 14.542C45.5865 14.5437 45.6607 14.619 45.6607 14.7124Z" fill="black"/>
  <path d="M43.8705 14.5195C43.9128 14.5204 43.931 14.5749 43.8973 14.5999C43.1861 15.1267 42.3065 15.4381 41.3536 15.4381C40.3316 15.4381 39.3925 15.0791 38.6562 14.4797C38.6424 14.4685 38.6165 14.446 38.6165 14.446L43.8705 14.5195Z" fill="black"/>
  <path d="M45.6607 11.5492V13.9927C45.6607 14.1095 45.5614 14.2012 45.4449 14.1934C42.7105 14.004 40.3566 13.9953 38.3429 14.1329C38.3032 14.1355 38.2644 14.1208 38.2376 14.0922C37.6006 13.4167 37.1802 12.5352 37.087 11.5578C37.0793 11.4739 37.1466 11.4021 37.2312 11.4021H38.5492C38.6157 11.4021 38.6709 11.4523 38.6795 11.5189C38.8556 12.8475 39.9898 13.8725 41.3648 13.8725C42.7778 13.8725 43.9379 12.7878 44.0622 11.4039C44.0647 11.3779 44.0665 11.3511 44.0673 11.3243C44.4825 11.3044 44.9072 11.281 45.3422 11.2534C45.5148 11.2404 45.6607 11.3762 45.6607 11.5492Z" fill="black"/>
  <path d="M39.9786 8.8219C39.3416 9.20336 38.8729 9.83912 38.7141 10.5899C38.7003 10.6574 38.6433 10.7067 38.5751 10.7084L37.2415 10.7404C37.1578 10.7422 37.0931 10.6686 37.1043 10.5856C37.1785 10.0104 37.3667 9.4715 37.6455 8.99144C37.68 8.93175 37.743 8.89456 37.8121 8.8911C38.4361 8.85823 39.1465 8.81758 39.9622 8.76914C39.9924 8.76654 40.0045 8.80633 39.9786 8.8219Z" fill="black"/>
  <path d="M45.6607 0V0.341666C45.6607 0.454978 45.6305 0.565695 45.5727 0.662573L44.1303 3.0897C44.1114 3.1217 44.0622 3.10786 44.0622 3.07067V0.96272C44.5671 0.689387 45.1635 0.348586 45.6607 0Z" fill="black"/>
  <path d="M45.6607 3.93651V7.63948C45.6607 7.83496 45.5062 7.99585 45.3111 8.00277L38.2903 8.24929C38.2523 8.25102 38.2307 8.20431 38.2575 8.17663C38.3826 8.04515 38.5155 7.92233 38.6562 7.80815C39.3925 7.20958 40.3316 6.85062 41.3536 6.85062C42.3816 6.85062 43.325 7.21304 44.063 7.81766V5.45455C44.063 5.38362 44.0967 5.31701 44.1545 5.27463C44.6474 4.91221 45.1644 4.47107 45.6607 3.93651Z" fill="black"/>
  <path d="M72.4089 19.6852C72.137 19.7431 72.137 19.5692 72.4633 19.0459C72.7896 18.5235 73.2246 17.3618 73.3333 16.9553C72.9527 16.0843 71.4845 16.4908 71.2126 16.4908C68.3305 16.6647 67.0798 17.3039 66.536 17.5365C65.3941 18.1169 64.3609 18.1169 63.8715 18.1169C63.2733 17.8263 62.8927 18.001 62.4033 18.1169C61.3701 18.6394 48.3727 22.5309 48.3727 22.5309C48.0465 22.7636 48.264 23.1701 48.4815 23.2281C48.2096 24.0412 48.5359 24.6216 48.5359 24.6216C48.5359 24.6216 47.7746 25.6085 47.5027 26.1898C47.5027 26.829 47.9377 27.2355 48.1008 27.4094C47.122 27.9318 47.8289 28.4552 48.1552 28.5711C49.134 28.5711 50.9829 27.9907 52.288 27.7C53.5931 27.4094 53.3212 27.8159 53.3212 28.1066C51.9617 33.1589 50.9829 35.772 49.3515 40.3598C47.6658 44.8318 47.5027 44.5411 47.1764 44.715C45.9257 45.5281 45.545 45.0636 45.2732 44.9477C44.5119 44.8318 44.1312 45.4701 44.1312 45.4701C42.4998 44.657 42.3367 43.4374 42.1192 42.7403C41.9017 40.359 40.1072 37.3393 39.6722 36.8169C47.7754 32.4029 47.2852 24.8534 47.122 23.344C46.9589 21.8338 45.5994 21.1374 44.5662 20.6141C41.4667 19.5104 39.0196 21.4272 38.5302 21.7758C37.2795 21.5431 37.0076 22.2982 36.7901 22.2982C36.6813 22.0656 36.2463 21.8917 35.7025 21.7758C35.1587 21.6599 34.7237 23.4599 34.7237 24.215C33.7993 24.7375 32.5486 28.0478 32.5486 28.0478C30.6453 32.8095 30.2103 33.5066 29.2859 34.7842C28.4702 36.2944 28.5246 35.4814 28.5246 35.4814C28.9596 32.345 33.5818 22.2982 34.2887 20.673C35.1587 18.0599 31.6785 18.4084 31.026 18.5823C29.7753 19.3374 27.3826 22.1832 27.1651 22.415C27.1651 22.1823 27.4914 21.1374 27.6001 20.8468C27.4914 19.5692 26.8388 19.9758 26.5669 20.0917C26.4038 21.7178 25.8056 22.7627 25.5337 23.5179C21.401 27.9898 20.7484 28.1637 20.177 29.18C10.9862 29.18 11.3125 35.8585 11.3125 35.8585C11.9106 36.9043 11.8562 37.1361 11.9106 37.3687C12.2913 37.8332 12.1281 37.9491 12.1281 37.9491C11.0406 38.7622 10.4424 39.6912 9.57235 41.0856C8.70229 42.4799 8.15851 42.2472 6.41839 43.2342C4.67828 44.2211 3.97136 42.8856 3.97136 42.8856C3.97136 42.8856 3.48195 41.8398 3.04692 41.9566C2.6119 42.0725 2.44876 41.666 1.79622 41.0856C0.108757 43.8734 0 46.3117 0 46.3117C2.96406 47.9664 4.32353 48.315 4.59542 48.373C11.284 46.7468 15.5264 41.5786 15.9614 40.8235C16.3964 40.0683 16.4508 40.2431 16.6683 40.2431C19.496 42.2178 23.085 40.9982 23.7919 40.9402C24.4988 40.8823 24.3357 41.2309 24.3357 41.2309C24.3357 41.2309 23.52 43.5542 22.8131 46.1673C22.1062 48.7804 23.6288 48.8383 23.6288 48.8383C23.6288 48.8383 26.6196 41.1141 26.8371 40.5917C27.0546 40.0692 27.0002 40.0692 27.7072 39.8945C26.6196 44.0178 25.8583 47.0375 25.6952 47.7926C25.532 48.5477 26.3477 48.6636 26.3477 48.6636C26.3477 48.6636 26.2933 48.8375 26.7283 49.0702C27.1634 49.3028 27.4353 48.4898 27.544 48.1412C28.1966 48.5477 28.6316 48.7804 28.9035 48.8383C29.8279 48.2579 29.5017 48.2579 29.3929 48.0253C29.8823 47.7346 30.2086 47.2701 30.2086 47.2701C30.3717 46.2832 31.4593 39.372 31.568 39.1982C32.1118 38.3851 32.5469 37.0496 32.5469 37.0496C32.5469 37.0496 33.9607 32.4038 34.5045 31.0683C35.0483 29.7327 36.5165 27.8739 36.5165 27.8739C38.311 23.9253 39.3985 23.2861 39.6704 23.1122C43.3682 22.7636 43.0963 25.0869 43.0963 25.0869C43.3682 29.7907 36.8971 34.2626 36.0271 34.3206C33.9607 34.6692 34.2326 35.0757 34.1238 35.3663C34.287 35.4243 34.5045 35.7729 34.4501 36.0055C34.0694 35.8896 33.9607 36.1794 34.1238 36.2962C34.9939 36.47 36.1902 38.4448 36.6796 39.026C36.9515 39.6064 37.2234 39.7232 37.2234 39.7232C37.3322 39.9559 38.0935 42.4531 38.0391 42.7428C37.9847 43.0335 40.8124 47.0401 41.6824 47.7952C43.6945 49.712 45.1627 48.7821 45.5433 48.5503C46.7397 47.9699 46.9572 48.2597 47.2291 48.2597C47.6641 48.0858 47.5009 48.3176 47.5009 48.4335C47.7185 48.4915 47.7185 48.6662 47.5553 49.0728C47.2834 49.8279 47.9904 50.0017 48.2079 50.0017C48.4254 49.6532 48.9692 49.6531 49.4586 49.6531C49.6217 48.4335 50.6549 47.5625 50.6549 47.5625C50.6549 47.5625 50.6005 47.098 50.9268 46.3429C51.2531 45.5878 51.96 44.7167 51.96 44.7167C52.1775 43.2065 53.1563 39.955 53.537 39.3738C54.0808 39.0252 54.407 37.9803 54.407 37.9803C54.407 37.9803 58.431 27.1205 58.7029 26.598C58.9748 26.0756 59.1923 25.9009 59.4642 25.785C60.7693 25.4364 67.4587 24.3335 68.4919 24.2168C69.5251 23.9261 69.362 23.4616 69.362 23.4616C68.9813 22.6486 69.4164 22.4159 69.7426 22.4159C70.0689 22.4159 70.0145 22.3 70.2864 21.8355C70.5583 21.371 71.4284 20.7318 72.244 20.3841C73.0614 20.0337 72.6808 19.6272 72.4089 19.6852ZM14.4379 35.4814C14.4379 35.2487 13.6766 33.9711 15.0905 32.6356C15.8518 31.8805 16.4499 31.4739 18.0813 31.3001C18.0813 31.3001 16.7771 33.3907 14.4379 35.4814ZM25.4776 38.0365C25.1514 38.559 23.6831 38.559 23.6831 38.559L21.6168 38.2683C21.6168 38.2683 21.2905 38.2104 21.1274 38.3842C20.9642 38.5581 20.7467 38.6169 20.5292 38.4422C20.3117 38.2683 19.6048 37.6871 19.2241 37.5711C19.0066 37.5132 18.4084 36.874 19.4416 36.1777C19.931 36.2936 21.3449 36.5263 25.6952 35.7711C25.8583 35.7711 26.2933 35.6552 26.2933 35.945C26.2933 35.945 25.8039 37.5141 25.4776 38.0365ZM26.2933 35.0169C25.6952 35.2495 22.5956 35.4814 21.0186 35.3655C21.0186 35.3655 20.5836 35.3075 20.9098 34.9589C21.2361 34.6103 21.508 34.2617 21.508 34.2617C21.508 34.2617 21.943 34.4356 22.1062 34.4356C22.2693 34.4356 22.4324 34.4936 22.4868 33.9132C22.8131 33.9132 24.1726 33.6225 24.1726 33.6225C24.1726 33.6225 24.7163 33.5646 24.8251 33.9711C24.9339 34.2038 25.1514 34.2038 25.1514 34.2038C25.1514 34.2038 25.6952 34.6683 25.8039 34.6683C25.9127 34.6683 26.2933 34.6683 26.2933 34.6683C26.2933 34.6683 26.8915 34.7842 26.2933 35.0169ZM27.6528 32.0552C27.6528 32.0552 27.3265 32.5197 27.109 32.2879C26.8915 32.0552 26.0214 31.1262 24.9339 30.6038C24.7163 30.4878 24.3357 30.6038 24.3357 30.6038C24.3357 30.6038 26.7283 26.9449 28.6316 25.5514C29.1132 25.208 30.0696 24.8655 30.099 24.8551L27.6528 32.0552Z" fill="black"/>
</svg>